# xmcd CD database file
# Copyright (C) 1997 Ti Kan
# 
# Track frame offsets:
#     150
#     30905
#     55071
#     81160
#     110418
#     135656
#     159320
#     183172
#     211751
#     254383
#     275523
#     312100
# 
# Disc length: 4437 seconds
# 
# Revision: 1
# Processed by: cddbd v1.4b41PL1 Copyright (c) Steve Scherf et al.
# Submitted via: DiscPlay 4.0.4
# 
DISCID=9411530c
DTITLE=George Michael - MTV Unplugged
DYEAR=1900
DGENRE=
TTITLE0=Freedom 90
TTITLE1=Fastlove
TTITLE2=I Can't Make You Love Me
TTITLE3=Father Figure
TTITLE4=You Have Been Loved
TTITLE5=Everything She Wants
TTITLE6=Praying For Time
TTITLE7=Star People
TTITLE8=Fastlove part II - Fully Extended Mix
TTITLE9=Spinning The Wheel - Forthright Edit
TTITLE10=Star People - Galaxy Mix
TTITLE11=You Know That I Want To
EXTD=
EXTT0=
EXTT1=
EXTT2=
EXTT3=
EXTT4=
EXTT5=
EXTT6=
EXTT7=
EXTT8=
EXTT9=
EXTT10=
EXTT11=
PLAYORDER=
